<?xml version="1.0" encoding="UTF-8"?>
<svg xmlns="http://www.w3.org/2000/svg" xmlns:xlink="http://www.w3.org/1999/xlink" viewBox="0 0 96 96" width="96px" height="96px">
<g id="surface135018169">
<path style=" stroke:none;fill-rule:nonzero;fill:rgb(82.745099%,82.745099%,82.745099%);fill-opacity:1;" d="M 35.660156 18 C 19.28125 18 18 19.28125 18 35.660156 L 18 60.339844 C 18 76.71875 19.28125 78 35.660156 78 L 60.339844 78 C 76.71875 78 78 76.71875 78 60.339844 L 78 35.660156 C 78 19.28125 76.71875 18 60.339844 18 Z M 31.753906 24 L 64.246094 24 C 71.4375 24 72 24.5625 72 31.753906 L 72 64.246094 C 72 71.4375 71.4375 72 64.246094 72 L 31.753906 72 C 24.5625 72 24 71.4375 24 64.246094 L 24 31.753906 C 24 24.5625 24.5625 24 31.753906 24 Z M 49.109375 29.539062 L 49.109375 54.441406 C 49.109375 57.867188 46.132812 59.632812 43.996094 59.632812 C 42.386719 59.632812 38.726562 58.371094 38.726562 54.402344 C 38.726562 50.234375 42.144531 49.167969 44.035156 49.167969 C 45.136719 49.167969 45.570312 49.40625 45.570312 49.40625 L 45.570312 42.761719 C 45.570312 42.761719 44.746094 42.636719 43.800781 42.636719 C 37.023438 42.636719 32.195312 48.125 32.195312 54.402344 C 32.195312 59.703125 36.34375 66.121094 43.917969 66.121094 C 51.988281 66.121094 55.679688 59.394531 55.679688 54.441406 L 55.679688 42.089844 C 55.679688 42.089844 59.277344 44.605469 64.097656 44.605469 L 64.097656 38.3125 C 58.566406 37.917969 55.613281 34.203125 55.40625 29.539062 Z M 49.109375 29.539062 "/>
</g>
</svg>
