<?xml version="1.0" standalone="no"?>
<!DOCTYPE svg PUBLIC "-//W3C//DTD SVG 20010904//EN"
 "http://www.w3.org/TR/2001/REC-SVG-20010904/DTD/svg10.dtd">
<svg version="1.0" xmlns="http://www.w3.org/2000/svg"
 width="875.000000pt" height="783.000000pt" viewBox="0 0 875.000000 783.000000"
 preserveAspectRatio="xMidYMid meet">

<g transform="translate(0.000000,783.000000) scale(0.100000,-0.100000)"
fill="#000000" stroke="none">
<path d="M480 3280 l0 -2160 3895 0 3895 0 0 2160 0 2160 -3895 0 -3895 0 0
-2160z m1910 1968 c35 -148 39 -188 41 -388 2 -174 4 -189 21 -193 15 -4 18
-15 18 -59 0 -30 -6 -60 -12 -66 -10 -10 -14 -119 -16 -462 -3 -442 -3 -448
17 -455 11 -3 26 -18 33 -32 9 -19 29 -32 68 -45 57 -19 103 -56 123 -98 15
-31 69 -40 93 -16 8 9 31 16 50 16 29 0 34 3 34 24 0 25 16 36 55 36 31 0 35
31 41 286 l5 201 -55 6 c-96 10 -98 30 -5 51 l54 11 6 51 c4 28 11 60 18 72
10 18 133 92 154 92 5 0 39 -18 76 -39 71 -42 91 -69 91 -124 0 -44 9 -54 55
-62 63 -11 75 -15 75 -30 0 -18 -23 -25 -82 -25 l-49 0 5 -202 c2 -112 8 -222
11 -245 6 -38 10 -43 34 -43 33 0 47 -9 55 -37 5 -15 15 -23 29 -23 12 0 34
-6 48 -14 14 -7 37 -16 52 -20 33 -8 35 -22 5 -29 -13 -3 -111 -11 -218 -17
-107 -6 -273 -15 -368 -20 -95 -6 -184 -10 -198 -10 -14 0 -22 -4 -19 -10 3
-5 15 -10 25 -10 12 0 26 -13 35 -30 19 -38 -7 -37 580 -5 791 44 810 44 1770
-14 463 -28 851 -51 863 -51 20 0 22 5 22 49 0 27 7 65 15 84 15 36 35 362 35
582 l0 100 75 140 c42 77 81 159 87 181 l12 42 36 -92 c21 -50 59 -136 86
-191 26 -55 47 -107 45 -115 -1 -8 -5 -44 -9 -80 -6 -54 -10 -65 -27 -69 -20
-3 -35 -18 -35 -35 0 -5 7 -3 16 5 17 14 77 14 105 -1 10 -6 22 -29 27 -53 8
-32 10 7 11 160 l1 202 86 171 c62 121 88 184 91 218 6 61 11 75 23 67 8 -5 7
-11 -1 -21 -17 -21 21 -135 106 -314 71 -149 74 -157 65 -200 -5 -25 -9 -121
-9 -215 1 -153 2 -167 14 -139 l14 32 108 -24 c59 -13 127 -27 151 -30 l42 -7
0 34 c0 19 9 61 19 95 11 33 22 89 24 123 3 35 7 65 10 67 2 3 7 -27 11 -66 4
-39 14 -92 22 -118 8 -26 19 -84 23 -130 8 -80 10 -85 75 -182 63 -93 97 -163
116 -236 15 -63 39 -69 41 -11 0 18 4 41 9 52 10 25 12 21 45 -105 14 -52 30
-111 35 -130 5 -19 10 -88 10 -152 0 -64 3 -123 6 -132 5 -14 32 -16 200 -16
l194 0 0 -120 0 -120 -3665 0 -3665 0 0 120 0 120 183 0 184 0 6 203 c4 111 7
300 7 419 l0 216 28 6 c15 3 56 10 92 16 36 6 80 13 98 16 l33 5 -2 115 c-2
112 -2 116 21 127 13 7 38 37 56 68 51 86 146 169 224 196 88 29 158 36 233
22 127 -23 222 -88 301 -208 30 -46 53 -71 71 -75 22 -6 24 -9 15 -26 -15 -27
-9 -202 7 -207 21 -7 24 56 21 468 -2 316 -6 409 -16 422 -8 9 -12 35 -10 69
3 46 6 53 26 56 16 2 22 10 22 27 0 13 -5 27 -10 30 -6 4 -7 12 -3 18 4 7 11
93 15 192 4 109 15 223 27 289 12 60 21 111 21 113 0 2 2 3 4 3 2 0 14 -42 26
-92z m3340 -388 c118 -11 230 -23 248 -26 l32 -6 0 -759 0 -759 -27 0 c-52 0
-698 41 -720 46 l-23 4 0 767 0 766 138 -6 c75 -4 234 -15 352 -27z m-550
-742 l0 -763 -65 3 -65 4 0 753 0 754 43 4 c23 2 52 4 65 5 l22 2 0 -762z
m-255 659 c19 -10 19 -10 0 -18 -11 -4 -39 -8 -62 -8 -42 -1 -43 -2 -43 -36
l0 -34 57 -3 57 -3 12 -70 c9 -49 13 -242 13 -653 l1 -583 -77 6 c-205 16
-599 35 -721 35 -133 0 -408 -14 -524 -26 l-57 -6 -3 89 c-2 48 -6 95 -8 103
-3 9 3 16 18 18 23 4 24 6 20 80 l-3 77 162 3 c159 2 161 3 177 27 9 14 25 25
36 25 24 0 26 15 4 24 -9 3 -69 6 -135 6 -112 0 -119 -1 -119 -20 0 -23 -29
-33 -86 -28 l-39 3 -3 63 -3 62 106 0 c84 0 105 3 105 14 0 14 -26 18 -180 29
-28 1 -36 7 -38 24 l-3 23 203 2 c267 4 275 22 12 26 l-192 2 -6 43 c-4 23 -7
53 -6 67 7 325 12 382 31 387 22 6 26 42 7 61 -17 17 5 32 45 32 l29 0 -26 31
c-14 17 -26 39 -26 49 0 10 -7 26 -16 35 -21 21 -17 25 53 37 67 12 152 13
241 3 62 -7 75 -18 50 -43 -9 -9 -9 -15 0 -24 7 -7 12 -22 12 -35 0 -16 6 -23
20 -23 11 0 29 -9 40 -20 15 -15 34 -20 83 -21 80 -2 129 -13 105 -23 -11 -5
-18 -19 -18 -37 0 -24 4 -29 25 -29 l25 0 0 -327 c0 -181 3 -392 7 -470 l6
-143 74 0 73 0 1 58 c1 31 5 257 10 502 4 245 11 466 14 493 l7 47 84 0 84 0
0 35 c0 34 -1 35 -42 36 -24 0 -51 4 -61 8 -30 11 0 29 58 34 80 6 308 -5 330
-16z m1340 -317 c-3 -5 -1 -10 4 -10 6 0 11 -4 11 -10 0 -5 -7 -10 -15 -10 -8
0 -15 9 -15 20 0 11 5 20 11 20 5 0 7 -4 4 -10z m-2562 -537 c-7 -2 -19 -2
-25 0 -7 3 -2 5 12 5 14 0 19 -2 13 -5z m194 -116 c-47 -6 -75 -6 -90 1 -17 8
-2 10 68 10 l90 -1 -68 -10z m-1523 -1938 c51 -13 110 -58 132 -102 15 -28 15
-31 -2 -44 -31 -23 -85 -15 -124 17 -29 26 -42 30 -92 30 -65 0 -98 -21 -98
-63 0 -37 30 -56 142 -88 159 -46 192 -78 192 -189 0 -82 -16 -111 -85 -150
-38 -21 -56 -24 -139 -24 -120 0 -174 22 -220 92 -17 25 -29 51 -27 56 2 6 25
17 51 25 l48 15 27 -32 c30 -37 67 -52 122 -52 80 0 129 53 95 105 -11 16 -41
29 -116 50 -112 31 -153 54 -187 104 -25 36 -31 109 -14 154 14 35 68 85 104
96 45 13 140 13 191 0z m613 -71 c17 -46 70 -182 117 -302 47 -121 86 -221 86
-223 0 -1 -28 -3 -63 -3 l-63 0 -19 55 -18 55 -142 0 -142 0 -18 -60 c-18 -59
-19 -60 -54 -59 -20 1 -48 4 -63 8 l-27 6 117 295 c130 328 115 306 217 309
l40 1 32 -82z m613 50 c84 -36 120 -86 120 -168 0 -68 -19 -109 -70 -153 l-43
-36 67 -112 c36 -61 66 -112 66 -115 0 -2 -31 -4 -69 -4 l-69 0 -61 105 -61
105 -45 0 -45 0 0 -105 0 -105 -60 0 -60 0 0 310 0 310 143 -6 c107 -5 153
-11 187 -26z m2015 -80 c88 -261 128 -362 138 -347 5 8 43 111 85 229 l77 215
63 3 c62 3 64 3 57 -20 -4 -13 -45 -129 -92 -258 -47 -129 -92 -256 -101 -282
l-16 -48 -80 0 -81 0 -101 278 c-56 152 -104 289 -108 304 -7 29 3 33 85 37
l36 1 38 -112z m906 85 c63 -28 116 -77 147 -137 23 -45 26 -62 25 -146 -1
-108 -14 -148 -67 -213 -84 -103 -261 -135 -393 -71 -170 82 -223 317 -107
475 26 36 53 57 107 84 69 35 75 37 157 33 57 -3 100 -11 131 -25z m-2229
-281 l117 -297 -27 -6 c-45 -11 -102 -10 -102 2 0 6 -10 33 -21 60 l-21 49
-139 0 -138 0 -22 -60 c-21 -59 -22 -60 -58 -59 -20 1 -48 4 -63 8 l-26 6 118
287 c65 157 121 291 125 297 3 6 36 11 73 11 l67 -1 117 -297z m556 81 c-4
-209 -5 -220 -30 -274 -16 -34 -40 -67 -63 -85 -34 -26 -48 -29 -126 -32 -66
-3 -95 0 -122 13 -46 22 -51 37 -23 77 23 35 21 34 119 22 60 -8 92 11 107 63
7 21 14 127 17 236 l6 197 59 0 60 0 -4 -217z m542 162 l0 -55 -155 0 -155 0
0 -65 0 -65 115 0 115 0 0 -60 0 -60 -120 0 -120 0 0 -65 0 -65 160 0 160 0 0
-60 0 -60 -220 0 -220 0 0 283 c0 155 3 292 6 305 6 22 7 22 220 22 l214 0 0
-55z"/>
<path d="M3060 3955 c0 -8 5 -15 10 -15 6 0 10 7 10 15 0 8 -4 15 -10 15 -5 0
-10 -7 -10 -15z"/>
<path d="M3100 3955 c0 -8 5 -15 10 -15 6 0 10 7 10 15 0 8 -4 15 -10 15 -5 0
-10 -7 -10 -15z"/>
<path d="M3140 3955 c0 -8 5 -15 10 -15 6 0 10 7 10 15 0 8 -4 15 -10 15 -5 0
-10 -7 -10 -15z"/>
<path d="M3190 3954 c0 -8 5 -12 10 -9 6 4 8 11 5 16 -9 14 -15 11 -15 -7z"/>
<path d="M3220 3961 c0 -6 5 -13 10 -16 6 -3 10 1 10 9 0 9 -4 16 -10 16 -5 0
-10 -4 -10 -9z"/>
<path d="M2995 3950 c3 -5 8 -10 11 -10 2 0 4 5 4 10 0 6 -5 10 -11 10 -5 0
-7 -4 -4 -10z"/>
<path d="M3020 3950 c0 -5 5 -10 10 -10 6 0 10 5 10 10 0 6 -4 10 -10 10 -5 0
-10 -4 -10 -10z"/>
<path d="M3490 3270 c-272 -16 -538 -33 -590 -38 l-95 -9 70 -1 c39 -1 320 12
625 28 305 16 614 30 685 30 72 0 500 -22 950 -50 837 -51 903 -54 893 -44
-14 14 -1519 105 -1808 109 -175 3 -362 -4 -730 -25z"/>
<path d="M4043 3166 c-71 -26 -142 -80 -171 -129 -31 -50 -52 -134 -52 -209
l0 -68 375 0 375 0 0 88 c0 79 -3 96 -30 150 -36 72 -92 125 -167 159 -45 21
-75 26 -162 29 -93 4 -113 1 -168 -20z"/>
<path d="M3639 3152 c-28 -24 -31 -79 -4 -98 69 -51 152 33 95 94 -25 27 -60
28 -91 4z"/>
<path d="M4646 3148 c-36 -51 -8 -108 52 -108 55 0 79 70 40 117 -18 22 -75
16 -92 -9z"/>
<path d="M3160 3121 c-81 -27 -141 -75 -176 -142 -8 -16 -17 -72 -21 -124 l-6
-95 301 0 300 0 7 31 c10 44 -4 136 -27 186 -41 88 -146 145 -273 150 -44 1
-91 -1 -105 -6z"/>
<path d="M5006 3114 c-139 -44 -205 -134 -206 -281 l0 -73 321 0 322 0 -6 80
c-11 135 -59 209 -167 259 -69 31 -190 39 -264 15z"/>
<path d="M2570 3100 c-16 -29 -35 -256 -26 -302 6 -35 9 -38 41 -38 l35 0 -1
148 c-1 157 -7 203 -26 209 -6 2 -17 -5 -23 -17z"/>
<path d="M2666 3102 c-2 -4 -7 -82 -11 -174 l-8 -168 30 0 c28 0 31 3 37 46 9
72 7 253 -4 273 -10 21 -37 34 -44 23z"/>
<path d="M3750 4300 l0 -220 60 0 60 0 0 215 0 214 68 4 67 3 -77 2 -78 2 0
-199 c0 -188 -6 -229 -28 -206 -4 4 -8 96 -10 206 l-4 199 -29 0 -29 0 0 -220z
m40 -76 c0 -47 -4 -73 -10 -69 -18 11 -12 145 7 145 2 0 3 -34 3 -76z"/>
<path d="M3750 3605 c0 -9 9 -15 23 -15 17 0 19 2 7 10 -10 6 2 10 40 13 l55
3 -62 2 c-50 2 -63 -1 -63 -13z"/>
<path d="M3925 3610 l50 -6 -45 -5 c-45 -5 -44 -6 13 -7 31 -1 57 2 57 7 0 14
-28 21 -78 19 l-47 -1 50 -7z"/>
<path d="M2850 1649 c-17 -46 -38 -99 -45 -116 l-14 -33 94 0 93 0 -39 101
c-57 146 -52 144 -89 48z"/>
<path d="M3390 1670 l0 -90 80 0 c75 0 83 2 105 26 27 29 32 72 14 106 -16 29
-70 48 -139 48 l-60 0 0 -90z"/>
<path d="M6316 1756 c-80 -30 -126 -97 -126 -186 0 -124 75 -200 197 -200 76
0 129 30 163 90 52 96 20 244 -62 283 -50 24 -127 29 -172 13z"/>
<path d="M4077 1670 c-13 -30 -34 -81 -45 -112 l-22 -58 91 0 c104 0 99 -13
48 120 -44 113 -44 113 -72 50z"/>
</g>
</svg>
